# AST/ASF file generated using VICON BodyLanguage
# -----------------------------------------------
:version 1.10
:name VICON
:units
  mass 1.0
  length 0.45
  angle deg
:documentation
   .ast/.asf automatically generated from VICON data using
   VICON BodyBuilder and BodyLanguage model FoxedUp or BRILLIANT.MOD
:root
   order TX TY TZ RX RY RZ
   axis XYZ
   position 0 0 0  
   orientation 0 0 0 
:bonedata
  begin
     id 1 
     name lhipjoint
     direction 0.64773 -0.699417 0.302095 
     length 2.48597 
     axis 0 0 0  XYZ
  end
  begin
     id 2 
     name lfemur
     direction 0.34202 -0.939693 0  
     length 6.71947  
     axis 0 0 20  XYZ
    dof rx ry rz
    limits (-160.0 20.0)
           (-70.0 70.0)
           (-60.0 70.0)
  end
  begin
     id 3 
     name ltibia
     direction 0.34202 -0.939693 0   
     length 8.08777   
     axis 0 0 20   XYZ
    dof rx
    limits (-10.0 170.0)
  end
  begin
     id 4 
     name lfoot
     direction 0.0808503 -0.222134 0.971658   
     length 2.08264   
     axis -90 7.62852e-016 20   XYZ
    dof rx rz
    limits (-45.0 90.0)
           (-70.0 20.0)
  end
  begin
     id 5 
     name ltoes
     direction 1.53502e-011 -4.22007e-011 1   
     length 1.04662   
     axis -90 7.62852e-016 20   XYZ
    dof rx
    limits (-90.0 20.0)
  end
  begin
     id 6 
     name rhipjoint
     direction -0.610924 -0.726792 0.313919   
     length 2.39233  
     axis 0 0 0  XYZ 
  end
  begin
     id 7 
     name rfemur
     direction -0.34202 -0.939693 0   
     length 6.96955   
     axis 0 0 -20   XYZ
    dof rx ry rz
    limits (-160.0 20.0)
           (-70.0 70.0)
           (-70.0 60.0)
  end
  begin
     id 8 
     name rtibia
     direction -0.34202 -0.939693 0   
     length 8.19584   
     axis 0 0 -20   XYZ
    dof rx
    limits (-10.0 170.0)
 end
 begin
     id 9 
     name rfoot
     direction -0.077777 -0.213691 0.9738   
     length 2.07539  
     axis -90 -7.62852e-016 -20   XYZ
    dof rx rz
    limits (-45.0 90.0)
           (-20.0 70.0)
  end
  begin
     id 10 
     name rtoes
     direction -1.53558e-011 -4.22006e-011 1   
     length 1.04381   
     axis -90 -7.62852e-016 -20   XYZ
    dof rx
    limits (-90.0 20.0)
  end
  begin
     id 11 
     name lowerback
     direction -0.00971646 0.996074 0.0879841   
     length 1.67643   
     axis 0 0 0   XYZ
    dof rx ry rz
    limits (-20.0 45.0)
           (-30.0 30.0)
           (-30.0 30.0)
  end
  begin
     id 12 
     name upperback
     direction 0.0127391 0.991676 0.128127   
     length 1.63741   
     axis 0 0 0   XYZ
    dof rx ry rz
    limits (-20.0 45.0)
           (-30.0 30.0)
           (-30.0 30.0)
  end
  begin
     id 13 
     name thorax
     direction 0.0167583 0.996049 0.0872067   
     length 1.65931   
     axis 0 0 0   XYZ
    dof rx ry rz
    limits (-20.0 45.0)
           (-30.0 30.0)
           (-30.0 30.0)
  end
  begin
     id 14 
     name lowerneck
     direction -0.0317829 0.998312 0.0486079   
     length 1.79021   
     axis 0 0 0   XYZ
    dof rx ry rz
    limits (-20.0 45.0)
           (-30.0 30.0)
           (-30.0 30.0)
  end
  begin
     id 15 
     name upperneck
     direction 0.0896851 0.972452 -0.215159   
     length 1.78797   
     axis 0 0 0   XYZ
    dof rx ry rz
    limits (-20.0 45.0)
           (-30.0 30.0)
           (-30.0 30.0)
  end
  begin
     id 16
     name head
     direction 0.0310949 0.996503 -0.0775582  
     length 1.81549  
     axis 0 0 0   XYZ
    dof rx ry rz
    limits (-20.0 45.0)
           (-30.0 30.0)
           (-30.0 30.0)
  end
  begin
     id 17 
     name lclavicle
     direction 0.853638 0.502051 -0.138733  
     length 3.31627  
     axis 0 0 0   XYZ
    dof ry rz
    limits (-20.0 10.0)
           (0.0 20.0)
  end
  begin
     id 18 
     name lhumerus
     direction 1 -4.48962e-011 -1.41788e-018   
     length 5.54893   
     axis 180 -30 -90   XYZ
    dof rx ry rz
    limits (-60.0 90.0)
           (-90.0 90.0)
           (-90.0 90.0)
  end
  begin
     id 19
     name lradius
     direction 1 -4.48962e-011 -4.95754e-027   
     length 3.02898   
     axis 180 -30 -90   XYZ
    dof rx
    limits (-10.0 170.0)
  end
  begin
     id 20
     name lwrist
     direction 1 -4.48952e-011 -1.03764e-026   
     length 1.51449   
     axis 9.09556e-015 90 90   XYZ
    dof ry
    limits (-180.0 0.0)
 end
  begin
     id 21 
     name lhand
     direction 1 -4.4902e-011 -2.07528e-026   
     length 0.640951   
     axis 1.3242e-014 90 90   XYZ
    dof rx rz
    limits (-90.0 90.0)
           (-45.0 45.0)
  end
  begin
     id 22 
     name lfingers
     direction 1 -4.49014e-011 -4.15056e-026   
     length 0.516751   
     axis 2.64841e-014 90 90   XYZ
    dof rx
    limits (0.0 90.0)
  end
  begin
     id 23
     name lthumb
     direction 0.707107 -6.35008e-011 0.707107   
     length 0.741954   
     axis -90 45 2.85299e-015   XYZ
    dof rx rz
    limits (-45.0 45.0)
           (-45.0 45.0)
  end
  begin
     id 24 
     name rclavicle
     direction -0.888531 0.455324 -0.0565039   
     length 3.20126  
     axis 0 0 0   XYZ 
    dof ry rz
    limits (-10.0 20.0)
           (-20.0 0.0)
  end
  begin
     id 25 
     name rhumerus
     direction -1 -4.48946e-011 -8.98298e-028  
     length 5.3519   
     axis 180 30 90   XYZ
    dof rx ry rz
    limits (-90.0 60.0)
           (-90.0 90.0)
           (-90.0 90.0)
  end
  begin
     id 26 
     name rradius
     direction -1 -4.4899e-011 -3.18779e-027   
     length 3.02531   
     axis 180 30 90   XYZ
    dof rx
    limits (-10.0 170.0)
  end
  begin
     id 27 
     name rwrist
     direction -1 -4.4897e-011 -1.03764e-026   
     length 1.51266   
     axis 9.09556e-015 -90 -90   XYZ
    dof ry
    limits (-180.0 0.0)
  end
  begin
     id 28
     name rhand
     direction -1 -4.48941e-011 -2.07528e-026   
     length 0.78389   
     axis 1.3242e-014 -90 -90   XYZ
    dof rx rz
    limits (-90.0 90.0)
           (-45.0 45.0)
  end
  begin
     id 29
     name rfingers
     direction -1 -4.49012e-011 -4.15056e-026   
     length 0.631992   
     axis 2.64841e-014 -90 -90   XYZ
    dof rx
    limits (0.0 90.0)
  end
  begin
     id 30
     name rthumb
     direction -0.707107 -6.3496e-011 0.707107   
     length 0.907418   
     axis -90 -45 -2.85299e-015   XYZ
    dof rx rz
    limits (-45.0 45.0)
           (-45.0 45.0)
  end
:hierarchy
  begin
    root lhipjoint rhipjoint lowerback
    lhipjoint lfemur
    lfemur ltibia
    ltibia lfoot
    lfoot ltoes
    rhipjoint rfemur
    rfemur rtibia
    rtibia rfoot
    rfoot rtoes
    lowerback upperback
    upperback thorax
    thorax lowerneck lclavicle rclavicle
    lowerneck upperneck
    upperneck head
    lclavicle lhumerus
    lhumerus lradius
    lradius lwrist
    lwrist lhand lthumb
    lhand lfingers
    rclavicle rhumerus
    rhumerus rradius
    rradius rwrist
    rwrist rhand rthumb
    rhand rfingers
  end

#!OML:ASF E:\Style3\Style3.ASF
:FULLY-SPECIFIED
:DEGREES
826
root -0.000144983 17.8655 0.472941 -14.7831 87.2136 -31.6728
lowerback -3.72867 -2.24155 -2.55232
upperback -9.98376 -2.53117 2.04961
thorax -8.19337 -0.797448 3.64847
lowerneck -5.81697 -11.6132 -11.649
upperneck 16.6305 -16.281 10.8714
head 7.94531 -7.64581 3.8325
rclavicle 1.74247e-014 -1.08338e-014
rhumerus -306.075 -24.9106 -390.221
rradius 31.3341
rwrist -13.8506
rhand -8.88955 16.0416
rfingers 7.12502
rthumb 17.0528 -13.2299
lclavicle 1.74247e-014 -1.08338e-014
lhumerus -42.1396 8.86034 48.7196
lradius 103.822
lwrist 85.5139
lhand -47.378 35.1197
lfingers 7.12502
lthumb -20.0706 64.103
rfemur -19.5965 8.00671 18.0647
rtibia 16.8955
rfoot -12.274 -16.5878
rtoes -17.6407
lfemur -12.7865 -8.37798 -15.2542
ltibia 6.86469
lfoot -10.2934 18.4637
ltoes -12.5898
827
root -0.00583048 17.861 0.473117 -8.99006 86.5877 -25.765
lowerback -3.65854 -2.26574 -2.66944
upperback -9.93343 -2.57207 2.10294
thorax -8.16879 -0.811177 3.77346
lowerneck -6.01587 -11.585 -11.509
upperneck 16.9065 -16.2258 10.6565
head 8.03398 -7.61468 3.73588
rclavicle 1.02685e-014 -9.93923e-016
rhumerus -306.896 -24.9326 -390.067
rradius 31.3088
rwrist -13.6664
rhand -8.64529 15.5574
rfingers 7.12502
rthumb 17.2879 -13.6937
lclavicle 1.02685e-014 -9.93923e-016
lhumerus -42.2356 8.71242 49.0641
lradius 103.597
lwrist 85.2231
lhand -47.9052 34.6592
lfingers 7.12502
lthumb -20.5773 63.5886
rfemur -19.7596 8.19867 17.993
rtibia 17.1915
rfoot -12.2702 -16.2189
rtoes -17.644
lfemur -12.5616 -7.83195 -15.4026
ltibia 6.86047
lfoot -11.0559 18.1647
ltoes -9.14852
828
root -0.0153183 17.8594 0.470146 -5.79893 86.0035 -22.4622
lowerback -3.54123 -2.29176 -2.66403
upperback -9.88853 -2.61624 2.13212
thorax -8.1825 -0.836043 3.8066
lowerneck -6.14672 -11.5494 -11.4224
upperneck 17.1358 -16.1672 10.5046
head 8.10532 -7.58406 3.67237
rclavicle 3.84648e-014 -2.41523e-014
rhumerus -307.95 -24.78 -389.66
rradius 31.2889
rwrist -13.9093
rhand -8.29867 15.3872
rfingers 7.12502
rthumb 17.6214 -13.8342
lclavicle 3.84648e-014 -2.41523e-014
lhumerus -42.3306 8.4617 49.4383
lradius 103.408
lwrist 84.9702
lhand -51.2645 32.337
lfingers 7.12502
lthumb -23.8023 60.8825
rfemur -19.907 8.39709 17.95
rtibia 17.4089
rfoot -12.1868 -15.9879
rtoes -18.0773
lfemur -12.4642 -7.365 -15.5312
ltibia 7.02027
lfoot -11.5492 18.0069
ltoes -7.08252
829
root -0.0267628 17.8573 0.467549 -3.78121 85.4175 -20.4059
lowerback -3.47093 -2.3358 -2.62974
upperback -9.86526 -2.68188 2.14793
thorax -8.19261 -0.873336 3.80866
lowerneck -6.25207 -11.4525 -11.2385
upperneck 17.3091 -16.0352 10.3697
head 8.13801 -7.5136 3.61236
rclavicle 1.1778e-014 -1.09332e-015
rhumerus -308.91 -24.6503 -389.686
rradius 31.2236
rwrist -14.1281
rhand -7.62573 15.3356
rfingers 7.12502
rthumb 18.2689 -13.8265
lclavicle 1.1778e-014 -1.09332e-015
lhumerus -42.3906 8.14669 49.7638
lradius 103.212
lwrist 84.9269
lhand -45.8407 34.1093
lfingers 7.12502
lthumb -18.5924 63.2408
rfemur -20.0787 8.60807 17.9288
rtibia 17.5213
rfoot -12.2529 -15.6926
rtoes -17.6057
lfemur -12.5362 -6.90907 -15.6404
ltibia 7.33996
lfoot -11.7997 18.0296
ltoes -7.07893
830
root -0.0322213 17.8523 0.465905 -2.53368 84.6702 -18.9834
lowerback -3.39113 -2.30509 -2.54519
upperback -9.75679 -2.65226 2.15289
thorax -8.12428 -0.873128 3.76609
lowerneck -6.43831 -11.3709 -11.1223
upperneck 17.5412 -15.9275 10.2996
head 8.21969 -7.44909 3.57489
rclavicle -1.00697e-014 -1.41634e-014
rhumerus -310.172 -24.318 -389.454
rradius 31.4428
rwrist -14.7868
rhand -6.89786 15.0943
rfingers 7.12502
rthumb 18.9691 -14.0007
lclavicle -1.00697e-014 -1.41634e-014
lhumerus -42.4179 7.86108 50.1459
lradius 103.049
lwrist 84.8784
lhand -45.6594 34.3163
lfingers 7.12502
lthumb -18.418 63.4644
rfemur -20.0551 8.92154 17.9792
rtibia 17.6137
rfoot -12.2197 -15.3426
rtoes -17.5868
lfemur -12.3698 -6.30504 -15.7374
ltibia 7.62999
lfoot -11.9952 18.048
ltoes -6.85738
831
root -0.0267744 17.8479 0.46054 -1.70017 83.7455 -17.8831
lowerback -3.37084 -2.24441 -2.47692
upperback -9.59436 -2.58016 2.21391
thorax -7.96261 -0.852009 3.78642
lowerneck -6.66428 -11.2674 -10.9581
upperneck 17.7547 -15.7726 10.1344
head 8.2849 -7.36676 3.50357
rclavicle -2.40467e-014 -2.06239e-014
rhumerus -311.675 -23.5642 -388.827
rradius 31.9637
rwrist -16.0174
rhand -6.30396 14.7059
rfingers 7.12502
rthumb 19.5401 -14.3322
lclavicle -2.40467e-014 -2.06239e-014
lhumerus -42.5799 7.72996 50.6091
lradius 102.806
lwrist 84.6875
lhand -45.344 33.8674
lfingers 7.12502
lthumb -18.1146 63.0438
rfemur -19.9326 9.19572 18.0848
rtibia 17.7331
rfoot -12.1309 -14.8766
rtoes -18.3059
lfemur -11.9485 -5.5356 -15.8572
ltibia 7.80027
lfoot -12.2973 18.0554
ltoes -6.59553
832
root -0.0240003 17.846 0.452941 0.352786 82.9974 -15.6274
lowerback -3.34746 -2.24723 -2.5228
upperback -9.48687 -2.59718 2.19924
thorax -7.85509 -0.866644 3.79488
lowerneck -7.01421 -11.1962 -10.8115
upperneck 18.1656 -15.6582 9.92395
head 8.4418 -7.29908 3.40595
rclavicle 3.67317e-014 1.90336e-014
rhumerus -313.338 -22.5969 -388.128
rradius 32.6044
rwrist -17.5747
rhand -5.63604 14.3714
rfingers 7.12502
rthumb 20.1822 -14.6002
lclavicle 3.67317e-014 1.90336e-014
lhumerus -42.7746 7.51432 51.0015
lradius 102.618
lwrist 84.459
lhand -44.8136 33.4373
lfingers 7.12502
lthumb -17.6043 62.6603
rfemur -19.8966 9.35858 17.9448
rtibia 17.8747
rfoot -12.0779 -14.4411
rtoes -18.8186
lfemur -11.5316 -4.94286 -16.1705
ltibia 7.81238
lfoot -12.6748 18.038
ltoes -6.41017
833
root -0.0239791 17.8425 0.446403 1.96755 82.2186 -13.8455
lowerback -3.33592 -2.25305 -2.61323
upperback -9.40733 -2.61519 2.20604
thorax -7.76913 -0.875778 3.85143
lowerneck -7.45676 -11.1161 -10.6339
upperneck 18.7923 -15.5205 9.59713
head 8.67476 -7.21997 3.26205
rclavicle 1.98536e-014 3.8763e-015
rhumerus -315.142 -21.3652 -387.412
rradius 33.3367
rwrist -19.1608
rhand -5.15763 14.2802
rfingers 7.12502
rthumb 20.642 -14.6422
lclavicle 1.98536e-014 3.8763e-015
lhumerus -42.9741 7.23895 51.4733
lradius 102.478
lwrist 84.3292
lhand -44.9613 33.1852
lfingers 7.12502
lthumb -17.7464 62.3954
rfemur -19.9262 9.6368 17.7829
rtibia 18.0194
rfoot -12.1355 -14.0266
rtoes -18.9701
lfemur -11.1076 -4.31739 -16.4495
ltibia 7.70482
lfoot -12.9706 18.0259
ltoes -5.9395
834
root -0.0172921 17.8385 0.440211 2.99898 81.1786 -12.6523
lowerback -3.48414 -2.19648 -2.66147
upperback -9.27925 -2.54351 2.24881
thorax -7.54545 -0.846455 3.91163
lowerneck -7.85944 -11.0052 -10.4767
upperneck 19.3536 -15.3305 9.25802
head 8.87577 -7.12335 3.12701
rclavicle 3.54085e-014 -1.09332e-015
rhumerus -316.851 -19.9839 -386.819
rradius 34.0964
rwrist -20.5912
rhand -4.67795 14.0855
rfingers 7.12502
rthumb 21.1028 -14.7862
lclavicle 3.54085e-014 -1.09332e-015
lhumerus -43.1862 7.01398 51.9857
lradius 102.324
lwrist 84.3279
lhand -45.3602 32.4448
lfingers 7.12502
lthumb -18.1303 61.6199
rfemur -20.0144 10.0162 17.6794
rtibia 18.2319
rfoot -12.2846 -13.4306
rtoes -18.4617
lfemur -10.572 -3.43092 -16.694
ltibia 7.46977
lfoot -13.1552 17.9894
ltoes -5.15548
835
root -0.0152543 17.8327 0.432004 3.53533 80.2608 -11.9594
lowerback -3.5071 -2.16226 -2.622
upperback -9.18772 -2.50387 2.27039
thorax -7.43585 -0.836415 3.90777
lowerneck -7.95827 -10.8387 -10.428
upperneck 19.4817 -15.1084 9.25993
head 8.90917 -7.01011 3.14592
rclavicle -4.90874e-014 -2.78299e-014
rhumerus -318.669 -18.392 -386.206
rradius 34.9331
rwrist -22.0197
rhand -4.27634 13.843
rfingers 7.12502
rthumb 21.4886 -14.9851
lclavicle -4.90874e-014 -2.78299e-014
lhumerus -43.3904 6.78365 52.4189
lradius 102.087
lwrist 84.2859
lhand -45.3777 32.1682
lfingers 7.12502
lthumb -18.147 61.3417
rfemur -20.1036 10.3485 17.6132
rtibia 18.4488
rfoot -12.2455 -12.9361
rtoes -18.7558
lfemur -10.1188 -2.66765 -16.8917
ltibia 7.39017
lfoot -13.5168 17.8829
ltoes -4.59284
836
root -0.0264302 17.8281 0.426674 4.2886 79.584 -11.1121
lowerback -3.38688 -2.21085 -2.691
upperback -9.14816 -2.57931 2.28592
thorax -7.45238 -0.871784 3.96873
lowerneck -7.97827 -10.6501 -10.3592
upperneck 19.4026 -14.8604 9.31503
head 8.85717 -6.88685 3.18855
rclavicle -2.7308e-014 -2.06736e-014
rhumerus -320.538 -16.7083 -385.745
rradius 35.8639
rwrist -23.1133
rhand -3.85101 13.5772
rfingers 7.12502
rthumb 21.897 -15.2037
lclavicle -2.7308e-014 -2.06736e-014
lhumerus -43.605 6.57279 52.8072
lradius 101.86
lwrist 84.2679
lhand -45.2996 32.2123
lfingers 7.12502
lthumb -18.0719 61.3927
rfemur -20.2656 10.6482 17.4747
rtibia 18.638
rfoot -12.2882 -12.5797
rtoes -18.7116
lfemur -9.93568 -2.13831 -17.0747
ltibia 7.43041
lfoot -13.885 17.8337
ltoes -4.32912
837
root -0.0427391 17.8256 0.422635 4.90355 78.9039 -10.4078
lowerback -3.18424 -2.22519 -2.78584
upperback -9.11002 -2.6114 2.30615
thorax -7.52082 -0.882315 4.05205
lowerneck -8.13618 -10.4865 -10.3231
upperneck 19.4065 -14.6353 9.35341
head 8.86264 -6.77146 3.21926
rclavicle -3.03333e-014 -1.2921e-015
rhumerus -322.384 -14.9905 -385.375
rradius 36.6998
rwrist -23.9687
rhand -3.28379 13.1915
rfingers 7.12502
rthumb 22.4416 -15.5247
lclavicle -3.03333e-014 -1.2921e-015
lhumerus -43.7888 6.30305 53.2878
lradius 101.737
lwrist 84.3309
lhand -45.2586 32.2862
lfingers 7.12502
lthumb -18.0325 61.4703
rfemur -20.4309 10.9701 17.3476
rtibia 18.8121
rfoot -12.3024 -12.2342
rtoes -18.6939
lfemur -9.88827 -1.60725 -17.245
ltibia 7.57781
lfoot -13.8876 17.9765
ltoes -4.76078
